<?xml version="1.0" encoding="utf-8"?>
<svg xmlns="http://www.w3.org/2000/svg" style="display:none">

  <!-- HOME ICON -->
  <symbol id="icon-home" viewBox="0 0 16 16">
    <path fill="currentColor"
      d="M6.5 14.5v-3.505c0-.245.25-.495.5-.495h2c.25 0 .5.25.5.5v3.5a.5.5 0 0 0 .5.5h4a.5.5 0 0 0 .5-.5v-7a.5.5 0 0 0-.146-.354L13 5.793V2.5a.5.5 0 0 0-.5-.5h-1a.5.5 0 0 0-.5.5v1.293L8.354 1.146a.5.5 0 0 0-.708 0l-6 6A.5.5 0 0 0 1.5 7.5v7a.5.5 0 0 0 .5.5h4a.5.5 0 0 0 .5-.5" />
  </symbol>

  <!-- SIDEBAR ICON -->
  <symbol id="icon-sidebar" viewBox="0 0 16 16">
    <path fill="currentColor"
      d="M14 2a1 1 0 0 1 1 1v10a1 1 0 0 1-1 1H2a1 1 0 0 1-1-1V3a1 1 0 0 1 1-1zM2 1a2 2 0 0 0-2 2v10a2 2 0 0 0 2 2h12a2 2 0 0 0 2-2V3a2 2 0 0 0-2-2z" />
    <path fill="currentColor"
      d="M3 4a1 1 0 0 1 1-1h2a1 1 0 0 1 1 1v8a1 1 0 0 1-1 1H4a1 1 0 0 1-1-1z" />
  </symbol>

  <!-- PEOPLE ICON -->
  <symbol id="icon-people" viewBox="0 0 16 16">
    <path fill="currentColor"
      d="M6 8a3 3 0 1 0 0-6 3 3 0 0 0 0 6m-5 6s-1 0-1-1 1-4 6-4 6 3 6 4-1 1-1 1zM11 3.5a.5.5 0 0 1 .5-.5h4a.5.5 0 0 1 0 1h-4a.5.5 0 0 1-.5-.5m.5 2.5a.5.5 0 0 0 0 1h4a.5.5 0 0 0 0-1zm2 3a.5.5 0 0 0 0 1h2a.5.5 0 0 0 0-1zm0 3a.5.5 0 0 0 0 1h2a.5.5 0 0 0 0-1z" />
  </symbol>

  <!-- STACK ICON -->
  <symbol id="icon-stack" viewBox="0 0 16 16">
    <path fill="currentColor"
      d="m14.12 10.163 1.715.858c.22.11.22.424 0 .534L8.267 15.34a.6.6 0 0 1-.534 0L.165 11.555a.299.299 0 0 1 0-.534l1.716-.858 5.317 2.659c.505.252 1.1.252 1.604 0l5.317-2.66zM7.733.063a.6.6 0 0 1 .534 0l7.568 3.784a.3.3 0 0 1 0 .535L8.267 8.165a.6.6 0 0 1-.534 0L.165 4.382a.299.299 0 0 1 0-.535z" />
    <path fill="currentColor"
      d="m14.12 6.576 1.715.858c.22.11.22.424 0 .534l-7.568 3.784a.6.6 0 0 1-.534 0L.165 7.968a.299.299 0 0 1 0-.534l1.716-.858 5.317 2.659c.505.252 1.1.252 1.604 0z" />
  </symbol>

  <!-- RIGHT ARROW ICON -->
  <symbol id="icon-chevron-right" viewBox="0 0 16 16">
    <path fill="currentColor"
      d="M6.646 14.354a.5.5 0 0 1 0-.708L10.293 10 6.646 6.354a.5.5 0 1 1 .708-.708l4 4a.5.5 0 0 1 0 .708l-4 4a.5.5 0 0 1-.708 0z" />
  </symbol>

  <!-- BUILDING ICON -->
  <symbol id="icon-building" viewBox="0 0 16 16">
    <path fill="currentColor"
      d="M3 0a1 1 0 0 0-1 1v14a1 1 0 0 0 1 1h3v-3.5a.5.5 0 0 1 .5-.5h3a.5.5 0 0 1 .5.5V16h3a1 1 0 0 0 1-1V1a1 1 0 0 0-1-1zm1 2.5a.5.5 0 0 1 .5-.5h1a.5.5 0 0 1 .5.5v1a.5.5 0 0 1-.5.5h-1a.5.5 0 0 1-.5-.5zm3 0a.5.5 0 0 1 .5-.5h1a.5.5 0 0 1 .5.5v1a.5.5 0 0 1-.5.5h-1a.5.5 0 0 1-.5-.5zm3.5-.5h1a.5.5 0 0 1 .5.5v1a.5.5 0 0 1-.5.5h-1a.5.5 0 0 1-.5-.5v-1a.5.5 0 0 1 .5-.5M4 5.5a.5.5 0 0 1 .5-.5h1a.5.5 0 0 1 .5.5v1a.5.5 0 0 1-.5.5h-1a.5.5 0 0 1-.5-.5zM7.5 5h1a.5.5 0 0 1 .5.5v1a.5.5 0 0 1-.5.5h-1a.5.5 0 0 1-.5-.5v-1a.5.5 0 0 1 .5-.5m2.5.5a.5.5 0 0 1 .5-.5h1a.5.5 0 0 1 .5.5v1a.5.5 0 0 1-.5.5h-1a.5.5 0 0 1-.5-.5zM4.5 8h1a.5.5 0 0 1 .5.5v1a.5.5 0 0 1-.5.5h-1a.5.5 0 0 1-.5-.5v-1a.5.5 0 0 1 .5-.5m2.5.5a.5.5 0 0 1 .5-.5h1a.5.5 0 0 1 .5.5v1a.5.5 0 0 1-.5.5h-1a.5.5 0 0 1-.5-.5zm3.5-.5h1a.5.5 0 0 1 .5.5v1a.5.5 0 0 1-.5.5h-1a.5.5 0 0 1-.5-.5v-1a.5.5 0 0 1 .5-.5" />
  </symbol>

  <!-- WALLET ICON -->
  <symbol id="icon-wallet" viewBox="0 0 16 16">
    <path fill="currentColor"
      d="M1.5 2A1.5 1.5 0 0 0 0 3.5v2h6a.5.5 0 0 1 .5.5c0 .253.08.644.306.958.207.288.557.542 1.194.542s.987-.254 1.194-.542C9.42 6.644 9.5 6.253 9.5 6a.5.5 0 0 1 .5-.5h6v-2A1.5 1.5 0 0 0 14.5 2z" />

    <path fill="currentColor"
      d="M16 6.5h-5.551a2.7 2.7 0 0 1-.443 1.042C9.613 8.088 8.963 8.5 8 8.5s-1.613-.412-2.006-.958A2.7 2.7 0 0 1 5.551 6.5H0v6A1.5 1.5 0 0 0 1.5 14h13a1.5 1.5 0 0 0 1.5-1.5z" />
  </symbol>

  <!-- BUILDING ICON -->
  <symbol id="icon-building" viewBox="0 0 16 16">
    <path fill="currentColor"
      d="M15 .5a.5.5 0 0 0-.724-.447l-8 4A.5.5 0 0 0 6 4.5v3.14L.342 9.526A.5.5 0 0 0 0 10v5.5a.5.5 0 0 0 .5.5h9a.5.5 0 0 0 .5-.5V14h1v1.5a.5.5 0 0 0 .5.5h3a.5.5 0 0 0 .5-.5zM2 11h1v1H2zm2 0h1v1H4zm-1 2v1H2v-1zm1 0h1v1H4zm9-10v1h-1V3zM8 5h1v1H8zm1 2v1H8V7zM8 9h1v1H8zm2 0h1v1h-1zm-1 2v1H8v-1zm1 0h1v1h-1zm3-2v1h-1V9zm-1 2h1v1h-1zm-2-4h1v1h-1zm3 0v1h-1V7zm-2-2v1h-1V5zm1 0h1v1h-1z" />
  </symbol>

  <!-- MEDICAl ICON -->
  <symbol id="icon-medical" viewBox="0 0 16 16">
    <path fill="currentColor"
      d="M9.293 0H4a2 2 0 0 0-2 2v12a2 2 0 0 0 2 2h8a2 2 0 0 0 2-2V4.707A1 1 0 0 0 13.707 4L10 .293A1 1 0 0 0 9.293 0M9.5 3.5v-2l3 3h-2a1 1 0 0 1-1-1m-3 2v.634l.549-.317a.5.5 0 1 1 .5.866L7 7l.549.317a.5.5 0 1 1-.5.866L6.5 7.866V8.5a.5.5 0 0 1-1 0v-.634l-.549.317a.5.5 0 1 1-.5-.866L5 7l-.549-.317a.5.5 0 0 1 .5-.866l.549.317V5.5a.5.5 0 1 1 1 0m-2 4.5h5a.5.5 0 0 1 0 1h-5a.5.5 0 0 1 0-1m0 2h5a.5.5 0 0 1 0 1h-5a.5.5 0 0 1 0-1" />
  </symbol>

</svg>